<svg width="200" height="200" id="catSVG" xmlns="http://www.w3.org/2000/svg">
            <defs>
            <g id="cat">
              <use href="#catBody"></use>
              <use href="#catLegs"></use>
              <use href="#catHead"></use>
            </g>
            <g id="catHead" class="animated">
              <polygon points="75,60 75,30 105,60"></polygon>
              <polygon points="95,60 125,30 125,60"></polygon>
              <circle
                cx="100"
                cy="75"
                r="30"
                stroke="black"
                stroke-width="3"
                fill="grey"
              ></circle>
              <path d="M100,80 c0,0 -5,10 -15,5" fill="none" stroke="black"></path>
              <path d="M100,80 c0,0 5,10 15,5" fill="none" stroke="black"></path>
              <polygon points="100,80 95,75 105,75"></polygon>
              <g id="aliveEyescat">
                <circle cx="90" cy="65" r="3"></circle>
                <circle cx="110" cy="65" r="3"></circle>
              </g>
              <g id="deadEyescat" class="hidden">
                <polygon points="88,60 96,68 94,70 86,62"></polygon>
                <polygon points="88,70 96,62 94,60 86,68"></polygon>
                <polygon points="108,60 116,68 114,70 106,62"></polygon>
                <polygon points="108,70 116,62 114,60 106,68"></polygon>
              </g>
              <use href="aliveEyes"></use>
              <use href="deadEyes"></use>
            </g>
            <g id="catBody">
              <polygon
                points="85,90 75,160 125,160 115,90"
                fill="grey"
                stroke="black"
                stroke-width="3"
              ></polygon>
            </g>
            <g id="catLegs">
              <path
                d="M85,90 L85,150 C85,150 70,160 85,160 L95,160 95,90 z"
                fill="grey"
                stroke="black"
              ></path>
              <path
                d="M115,90 L115,150 C115,150 130,160 115,160 L105,160 105,90 z"
                fill="grey"
                stroke="black"
              ></path>
            </g>
          </defs>
            <use href="#cat"></use>
          </svg>