<svg width="40%" height="100%" viewBox="0 0 200 200" id="catSVG" class="hidden" preserveAspectRatio="xMidYMid meet">
      <defs>
        <g id="dog">
          <use href="#dogTail"></use>
          <use href="#dogBody"></use>
          <use href="#dogLegs"></use>
          <use href="#dogHead"></use>
          <use href="#dogTongue"></use>
        </g>
        <g id="dogHead">
          <polygon points="75,60 75,40 90,40 105,60"></polygon>
          <path d="M75,40 c0,0 0,-20 15,0"></path>
          <polygon points="95,60 110,40 125,40 125,60"></polygon>
          <path d="M110,40 c0,0 15,-20 15,0"></path>
          <circle
            cx="100"
            cy="75"
            r="30"
            stroke="black"
            stroke-width="3"
            fill="gold"
          ></circle>
          <path d="M100,80 l-10,10" fill="none" stroke="black"></path>
          <path d="M100,80 l10,10" fill="none" stroke="black"></path>
          <path d="M100,80 l7,7 c0,0 -6.5,10 -14,0 z"></path>
          <polygon points="100,80 95,75 105,75"></polygon>
          <g id="aliveEyesdog">
            <circle cx="90" cy="65" r="3"></circle>
            <circle cx="110" cy="65" r="3"></circle>
          </g>
          <g id="deadEyedog" class="hidden">
            <polygon points="88,60 96,68 94,70 86,62"></polygon>
            <polygon points="88,70 96,62 94,60 86,68"></polygon>
            <polygon points="108,60 116,68 114,70 106,62"></polygon>
            <polygon points="108,70 116,62 114,60 106,68"></polygon>
          </g>
          <use href="aliveEyes"></use>
          <use href="deadEyes"></use>
        </g>
        <g id="dogTail" class="animated">
          <path
            d="M90,155 c0,0 -35,-25 -27,-58 c0,0 16,38 25,42 L90,155 z"
            fill="gold"
            stroke="black"
          ></path>
        </g>
        <g id="dogTongue">
          <path
            d="M95,86 l0,10 c0,0 5,5 10,0 l0,-10 c0,0 -5,-3 -10,0"
            fill="pink"
            stroke="black"
          ></path>
        </g>
        <g id="dogBody">
          <polygon
            points="85,90 75,160 125,160 115,90"
            fill="gold"
            stroke="black"
            stroke-width="3"
          ></polygon>
        </g>
        <g id="dogLegs">
          <path
            d="M85,90 L85,150 C85,150 70,160 85,160 L95,160 95,90 z"
            fill="gold"
            stroke="black"
          ></path>
          <path
            d="M115,90 L115,150 C115,150 130,160 115,160 L105,160 105,90 z"
            fill="gold"
            stroke="black"
          ></path>
        </g>
      </defs>
      <use href="#dog"></use>
    </svg>