<svg width="200" height="200" id="rabbitSVG" xmlns="http://www.w3.org/2000/svg">
            <defs>
              <g id="rabbit">
                <use href="#rabbitBody"></use>
                <use href="#rabbitLegs"></use>
                <use href="#rabbitEars"></use>
                <use href="#rabbitHead"></use>
                <use href="#speechBubble"></use>
              </g>
              <g id="rabbitHead">
                <circle
                  cx="100"
                  cy="75"
                  r="30"
                  stroke="black"
                  stroke-width="3"
                  fill="grey"
                ></circle>
                <path d="M100,80 c0,0 -5,10 -8,0" fill="none" stroke="black"></path>
                <path d="M100,80 c0,0 5,10 8,0" fill="none" stroke="black"></path>
                <polygon points="100,80 95,75 105,75"></polygon>
                <g id="aliveEyesrabbit">
                  <circle cx="90" cy="65" r="3"></circle>
                  <circle cx="110" cy="65" r="3"></circle>
                </g>
                <g id="deadEyesrabbit" class="hidden">
                  <polygon points="88,60 96,68 94,70 86,62"></polygon>
                  <polygon points="88,70 96,62 94,60 86,68"></polygon>
                  <polygon points="108,60 116,68 114,70 106,62"></polygon>
                  <polygon points="108,70 116,62 114,60 106,68"></polygon>
                </g>
                <use href="aliveEyes"></use>
                <use href="deadEyes"></use>
              </g>
              <g id="rabbitEars">
                <g id="leftEar" class="animated">
                  <path
                    d="M80,60 c0,0 -5,-50 5,-55 c0,0 8,5 5,55"
                    fill="grey"
                    stroke="black"
                  ></path>
                </g>
                <g id="rightEar" class="animated">
                  <path
                    d="M110,60 c0,0 -5,-50 5,-55 c0,0 8,5 5,55"
                    fill="grey"
                    stroke="black"
                  ></path>
                </g>
                <use href="leftEar"></use>
                <use href="rightEar"></use>
              </g>
              <g id="rabbitBody">
                <circle cx="78" cy="138" r="12" stroke="black" fill="grey"></circle>
                <polygon
                  points="85,90 75,160 125,160 115,90"
                  fill="grey"
                  stroke="black"
                  stroke-width="3"
                ></polygon>
              </g>
              <g id="rabbitLegs">
                <path
                  d="M85,90 L85,150 C85,150 70,160 85,160 L95,160 95,90 z"
                  fill="grey"
                  stroke="black"
                ></path>
                <path
                  d="M115,90 L115,150 C115,150 130,160 115,160 L105,160 105,90 z"
                  fill="grey"
                  stroke="black"
                ></path>
              </g>
            </defs>
            <use href="#rabbit"></use>
          </svg>